# xmcd
#
# Track frame offsets:
# 150
# 17462
# 32400
# 50897
# 65132
# 81592
# 96047
# 114177
# 130032
# 144542
# 160877
# 174497
# 187962
# 203550
#
# Disc length: 2971 seconds
#
#
# Revision: 1
# Processed by: cddbd v1.5.2PL0 Copyright (c) Steve Scherf et al.
# Submitted via: FreeRIP 2.951 
#
DISCID=b70b990e
DTITLE=Leandro - Leandro
DYEAR=2006
DGENRE=Country
TTITLE0=Será?
TTITLE1=Beijo Tchau
TTITLE2=What s Left Of Me
TTITLE3=Por Você
TTITLE4=Nosso Amor É Assim
TTITLE5=Meu Anjo
TTITLE6=Então Vem
TTITLE7=Aonde Você For
TTITLE8=A Bem Da Verdade
TTITLE9=Manias E Defeitos
TTITLE10=Me Leve
TTITLE11=Tão Perto De Você
TTITLE12=Uma Vida Inteira
TTITLE13=O Ultimo Romantico
EXTD=
EXTT0=
EXTT1=
EXTT2=
EXTT3=
EXTT4=
EXTT5=
EXTT6=
EXTT7=
EXTT8=
EXTT9=
EXTT10=
EXTT11=
EXTT12=
EXTT13=
PLAYORDER=
